<svg xmlns="http://www.w3.org/2000/svg" width="1218" height="861" viewBox="0 0 1218 861">
<g>
<path style="stroke:white; fill:white" d="M 230.50,595.47 L 226.05,595.04 L 217.62,593.87 L 213.49,593.23 L 205.76,591.65 L 201.98,590.81 L 195.01,588.84 L 185.50,585.46 L 184.67,585.12 L 182.65,584.37 L 180.00,583.50 L 179.75,583.43 L 179.04,583.17 L 178.65,583.02 L 177.69,582.63 L 176.66,582.20 L 174.04,581.03 L 172.65,580.40 L 169.56,578.95 L 167.98,578.20 L 164.74,576.63 L 163.14,575.84 L 160.09,574.32 L 158.63,573.58 L 156.12,572.26 L 155.54,571.95 L 154.53,571.40 L 154.06,571.14 L 153.31,570.70 L 152.96,570.49 L 152.50,570.18 L 152.17,569.88 L 152.07,569.64 L 151.65,569.26 L 150.88,569.00 L 150.81,569.00 L 150.51,568.88 L 150.33,568.80 L 149.81,568.53 L 149.25,568.23 L 147.60,567.25 L 146.71,566.71 L 144.58,565.36 L 141.07,563.05 L 137.01,560.32 L 129.20,554.42 L 125.36,551.40 L 118.01,544.96 L 114.40,541.67 L 107.54,534.73 L 104.18,531.21 L 97.86,523.81 L 94.77,520.06 L 89.01,512.26 L 86.21,508.32 L 81.06,500.15 L 78.56,496.03 L 74.05,487.54 L 68.05,474.50 L 67.00,471.98 L 65.18,467.41 L 64.31,465.20 L 62.79,461.09 L 62.06,459.08 L 60.80,455.24 L 60.19,453.33 L 59.12,449.55 L 58.61,447.65 L 57.69,443.73 L 57.24,441.73 L 56.41,437.48 L 56.00,435.29 L 55.20,430.50 L 53.99,422.50 L 53.56,419.51 L 52.92,413.63 L 52.64,410.70 L 52.28,404.89 L 52.14,401.98 L 52.09,396.17 L 52.09,393.25 L 52.33,387.38 L 52.49,384.43 L 53.02,378.44 L 53.33,375.43 L 54.17,369.25 L 54.63,366.14 L 55.78,359.73 L 57.85,349.78 L 58.14,348.47 L 58.69,346.15 L 58.95,345.03 L 59.49,342.96 L 60.04,340.91 L 61.35,336.82 L 61.71,335.74 L 62.57,333.36 L 63.03,332.13 L 64.11,329.31 L 64.69,327.83 L 66.05,324.39 L 68.48,318.36 L 70.17,314.18 L 74.23,305.81 L 76.37,301.64 L 81.24,293.36 L 83.77,289.25 L 89.37,281.18 L 92.24,277.18 L 98.45,269.44 L 101.62,265.62 L 108.34,258.33 L 111.76,254.75 L 118.90,248.02 L 122.51,244.74 L 129.97,238.71 L 141.40,230.56 L 143.84,228.97 L 148.69,225.92 L 149.87,225.18 L 152.11,223.79 L 153.21,223.12 L 155.24,221.90 L 156.22,221.31 L 157.95,220.30 L 158.77,219.82 L 160.11,219.07 L 160.73,218.73 L 161.62,218.28 L 162.35,218.00 L 162.44,218.00 L 163.15,217.72 L 163.58,217.55 L 164.88,216.98 L 165.58,216.66 L 167.28,215.87 L 170.11,214.51 L 171.41,213.88 L 174.26,212.61 L 175.73,211.98 L 178.87,210.72 L 182.08,209.47 L 189.20,207.05 L 192.85,205.86 L 200.59,203.67 L 212.50,200.75 L 214.20,200.37 L 217.10,199.75 L 218.48,199.47 L 220.94,199.00 L 223.35,198.57 L 228.12,198.09 L 229.40,197.99 L 232.31,197.86 L 233.85,197.80 L 237.48,197.73 L 238.45,197.72 L 240.57,197.70 L 241.67,197.69 L 244.07,197.68 L 245.31,197.68 L 248.03,197.68 L 252.50,197.67 L 254.09,197.67 L 256.99,197.68 L 258.39,197.68 L 260.95,197.68 L 262.19,197.69 L 264.45,197.70 L 265.54,197.71 L 267.54,197.73 L 269.47,197.76 L 272.69,197.86 L 274.21,197.91 L 276.83,198.09 L 279.36,198.28 L 283.84,199.00 L 285.00,199.21 L 287.56,199.75 L 292.00,200.74 L 294.81,201.38 L 299.79,202.56 L 302.20,203.14 L 306.52,204.26 L 308.61,204.81 L 312.45,205.93 L 314.33,206.50 L 317.90,207.68 L 321.42,208.90 L 328.45,211.82 L 330.27,212.61 L 334.15,214.39 L 340.50,217.45 L 343.11,218.73 L 348.03,221.28 L 350.44,222.55 L 355.00,225.14 L 357.25,226.44 L 361.55,229.10 L 363.67,230.45 L 367.77,233.26 L 369.81,234.69 L 373.80,237.70 L 375.79,239.23 L 379.75,242.48 L 381.73,244.15 L 385.73,247.71 L 391.87,253.46 L 394.25,255.75 L 399.03,260.73 L 400.19,261.98 L 402.42,264.42 L 403.51,265.63 L 405.50,267.93 L 406.46,269.05 L 408.14,271.09 L 408.93,272.08 L 410.19,273.76 L 410.76,274.55 L 411.53,275.76 L 412.00,276.95 L 412.00,277.10 L 411.53,277.38 L 411.22,277.51 L 410.20,277.71 L 409.63,277.80 L 408.14,277.92 L 405.48,278.00 L 398.96,278.00 L 386.73,265.71 L 385.05,264.02 L 381.23,260.38 L 379.29,258.56 L 375.30,254.97 L 373.33,253.22 L 369.65,250.09 L 368.78,249.36 L 367.16,248.06 L 365.00,246.40 L 363.94,245.61 L 361.28,243.76 L 359.88,242.81 L 356.72,240.72 L 353.48,238.61 L 346.61,234.35 L 344.94,233.34 L 341.83,231.49 L 340.33,230.61 L 337.75,229.15 L 337.15,228.82 L 336.09,228.25 L 335.58,227.99 L 334.74,227.58 L 334.35,227.39 L 333.77,227.15 L 333.20,226.99 L 333.10,226.99 L 332.69,226.87 L 332.46,226.79 L 331.83,226.53 L 329.52,225.43 L 329.11,225.22 L 327.89,224.65 L 327.22,224.34 L 325.64,223.66 L 320.52,221.57 L 317.45,220.39 L 311.28,218.27 L 308.19,217.25 L 301.99,215.46 L 298.89,214.60 L 292.66,213.12 L 289.55,212.43 L 283.30,211.27 L 280.18,210.73 L 273.92,209.90 L 270.79,209.52 L 264.52,209.01 L 261.39,208.79 L 255.12,208.59 L 251.99,208.54 L 245.72,208.66 L 242.60,208.76 L 236.35,209.21 L 233.23,209.47 L 227.00,210.23 L 223.89,210.65 L 217.68,211.73 L 214.59,212.32 L 208.41,213.72 L 205.33,214.46 L 199.20,216.18 L 196.14,217.07 L 190.06,219.11 L 187.02,220.17 L 180.99,222.53 L 172.00,226.42 L 169.32,227.65 L 164.05,230.34 L 161.44,231.72 L 156.29,234.67 L 153.73,236.18 L 148.72,239.40 L 146.24,241.04 L 141.38,244.50 L 138.97,246.26 L 134.27,249.95 L 131.94,251.83 L 127.41,255.74 L 125.17,257.72 L 120.83,261.83 L 118.68,263.92 L 114.54,268.22 L 112.50,270.40 L 108.56,274.89 L 106.63,277.15 L 102.92,281.80 L 101.09,284.15 L 97.62,288.95 L 95.92,291.37 L 92.69,296.32 L 91.11,298.80 L 88.15,303.87 L 86.70,306.42 L 84.01,311.60 L 82.70,314.21 L 80.30,319.48 L 77.03,327.50 L 76.41,329.15 L 75.07,332.62 L 74.75,333.44 L 74.18,334.86 L 73.52,336.50 L 73.17,337.33 L 72.42,339.65 L 71.54,343.00 L 71.44,343.48 L 71.16,344.68 L 71.00,345.30 L 70.64,346.65 L 69.50,350.51 L 69.18,351.49 L 68.53,354.18 L 68.20,355.62 L 67.56,359.09 L 67.24,360.89 L 66.63,364.91 L 66.33,366.97 L 65.79,371.33 L 65.26,375.74 L 64.50,384.68 L 64.34,386.85 L 64.13,390.95 L 64.00,396.53 L 64.00,398.28 L 64.12,402.13 L 64.20,404.11 L 64.47,408.30 L 64.77,412.53 L 65.72,421.29 L 65.98,423.44 L 66.57,427.62 L 66.87,429.67 L 67.52,433.51 L 67.85,435.38 L 68.55,438.72 L 69.62,443.00 L 70.65,446.56 L 72.74,453.18 L 73.79,456.42 L 75.93,462.47 L 77.02,465.44 L 79.29,471.05 L 80.44,473.81 L 82.89,479.09 L 84.14,481.70 L 86.82,486.77 L 88.20,489.30 L 91.17,494.29 L 92.70,496.78 L 96.03,501.80 L 101.47,509.50 L 101.80,509.95 L 102.62,511.00 L 103.05,511.54 L 104.05,512.75 L 105.10,514.00 L 107.63,516.89 L 108.95,518.38 L 111.91,521.60 L 113.41,523.23 L 116.59,526.59 L 118.19,528.26 L 121.39,531.54 L 122.98,533.15 L 126.02,536.16 L 127.50,537.60 L 130.19,540.13 L 133.60,543.16 L 134.88,544.23 L 138.20,546.69 L 139.95,547.95 L 144.00,550.67 L 146.09,552.05 L 150.61,554.88 L 152.90,556.29 L 157.62,559.07 L 159.98,560.43 L 164.62,563.01 L 166.91,564.25 L 171.22,566.46 L 173.30,567.51 L 177.00,569.20 L 177.87,569.59 L 179.45,570.23 L 181.55,570.99 L 182.64,571.34 L 184.63,572.10 L 185.08,572.28 L 185.80,572.60 L 186.50,572.98 L 186.68,573.11 L 187.68,573.53 L 188.26,573.76 L 189.91,574.33 L 190.79,574.63 L 192.89,575.30 L 193.97,575.64 L 196.31,576.34 L 198.68,577.04 L 203.31,578.28 L 204.40,578.56 L 206.28,579.01 L 208.50,579.46 L 209.27,579.59 L 210.74,580.07 L 211.48,580.36 L 213.03,581.27 L 213.83,581.80 L 215.67,583.28 L 219.00,586.30 L 225.50,592.50 L 225.81,587.63 L 226.12,582.76 L 231.81,583.34 L 233.83,583.55 L 237.54,583.89 L 239.34,584.05 L 242.71,584.29 L 246.00,584.51 L 252.02,584.65 L 255.00,584.67 L 261.02,584.42 L 262.57,584.34 L 265.81,584.10 L 271.00,583.63 L 274.29,583.30 L 280.52,582.52 L 283.57,582.11 L 289.40,581.12 L 292.28,580.60 L 297.82,579.38 L 300.57,578.74 L 305.94,577.26 L 308.61,576.48 L 313.91,574.70 L 316.56,573.77 L 321.89,571.66 L 324.58,570.57 L 330.06,568.10 L 338.55,563.97 L 342.62,561.90 L 350.46,557.35 L 354.33,555.01 L 361.78,549.94 L 365.45,547.33 L 372.49,541.74 L 375.96,538.89 L 382.56,532.80 L 385.81,529.69 L 391.98,523.12 L 395.00,519.78 L 400.70,512.75 L 403.49,509.17 L 408.70,501.69 L 415.96,489.99 L 416.72,488.66 L 417.99,486.47 L 418.59,485.44 L 419.62,483.76 L 420.11,482.97 L 420.98,481.70 L 421.41,481.10 L 422.24,480.13 L 423.07,479.21 L 424.98,477.82 L 425.51,477.48 L 426.75,476.77 L 428.97,475.58 L 429.91,475.09 L 431.71,474.19 L 432.58,473.76 L 434.11,473.05 L 434.83,472.73 L 435.92,472.28 L 436.89,472.00 L 437.10,472.00 L 437.30,472.33 L 437.37,472.55 L 437.29,473.30 L 437.23,473.71 L 436.90,474.82 L 436.71,475.42 L 436.16,476.85 L 435.85,477.61 L 435.09,479.32 L 434.69,480.21 L 433.75,482.17 L 432.76,484.18 L 430.34,488.75 L 429.07,491.09 L 426.20,496.09 L 424.73,498.60 L 421.60,503.69 L 420.03,506.21 L 416.82,511.05 L 412.12,517.67 L 409.19,521.57 L 402.85,529.06 L 399.60,532.74 L 392.66,539.75 L 389.13,543.20 L 381.65,549.71 L 377.85,552.89 L 369.89,558.85 L 365.86,561.76 L 357.47,567.13 L 353.22,569.74 L 344.45,574.49 L 340.03,576.79 L 330.94,580.87 L 317.00,586.21 L 313.52,587.40 L 306.59,589.45 L 303.13,590.43 L 296.21,592.09 L 292.75,592.86 L 285.79,594.11 L 282.30,594.69 L 275.26,595.55 L 271.72,595.92 L 264.53,596.39 L 260.92,596.57 L 253.55,596.65 L 249.84,596.64 L 242.23,596.34 L 238.39,596.15 M 844.50,595.85 L 843.02,595.37 L 840.11,594.19 L 838.66,593.58 L 835.84,592.16 L 833.04,590.69 L 827.87,587.14 L 826.63,586.21 L 824.29,584.23 L 823.15,583.23 L 821.05,581.12 L 820.04,580.06 L 818.21,577.85 L 815.84,574.46 L 814.65,572.55 L 812.73,568.41 L 811.85,566.30 L 810.53,561.85 L 809.95,559.60 L 809.24,554.95 L 808.96,552.61 L 808.85,547.88 L 808.87,545.52 L 809.36,540.83 L 809.68,538.49 L 810.77,533.94 L 811.39,531.70 L 813.08,527.41 L 816.29,521.40 L 816.64,520.86 L 817.55,519.64 L 818.04,519.01 L 819.19,517.65 L 820.38,516.27 L 823.20,513.39 L 824.64,511.96 L 827.56,509.37 L 828.27,508.77 L 829.63,507.69 L 831.50,506.36 L 831.91,506.10 L 833.14,505.42 L 833.80,505.06 L 835.38,504.28 L 840.50,501.99 L 841.80,501.46 L 844.03,500.72 L 845.13,500.40 L 847.46,499.99 L 848.70,499.83 L 851.79,499.68 L 852.64,499.65 L 854.60,499.63 L 858.00,499.63 L 859.27,499.64 L 861.46,499.68 L 862.50,499.70 L 864.30,499.76 L 865.16,499.80 L 866.65,499.92 L 867.37,499.98 L 868.65,500.16 L 869.90,500.35 L 872.17,500.99 L 875.95,502.44 L 877.96,503.30 L 881.49,505.06 L 883.19,505.98 L 886.32,508.00 L 887.86,509.07 L 890.85,511.53 L 895.47,515.92 L 900.44,521.01 L 893.49,528.01 L 892.54,528.97 L 890.73,530.72 L 889.86,531.56 L 888.34,532.95 L 887.64,533.58 L 886.58,534.45 L 885.70,535.00 L 885.59,535.00 L 884.98,534.63 L 884.63,534.39 L 883.65,533.62 L 883.13,533.20 L 881.90,532.14 L 879.91,530.32 L 878.83,529.30 L 876.89,527.55 L 875.95,526.72 L 874.22,525.34 L 873.37,524.69 L 871.77,523.62 L 870.97,523.13 L 869.42,522.35 L 867.85,521.63 L 864.51,520.89 L 863.63,520.74 L 861.70,520.59 L 858.50,520.50 L 857.32,520.50 L 855.14,520.60 L 854.07,520.68 L 852.10,520.93 L 850.17,521.23 L 846.78,522.33 L 845.14,522.98 L 842.15,524.85 L 837.80,528.66 L 836.36,530.15 L 834.06,533.38 L 833.00,535.03 L 831.45,538.52 L 830.77,540.28 L 829.97,543.91 L 829.66,545.73 L 829.60,549.41 L 829.67,551.25 L 830.35,554.88 L 830.79,556.67 L 832.21,560.15 L 833.01,561.86 L 835.17,565.08 L 839.23,569.52 L 840.61,570.76 L 843.33,572.67 L 844.70,573.54 L 847.59,574.78 L 849.08,575.32 L 852.36,575.97 L 858.00,576.38 L 859.10,576.39 L 861.11,576.31 L 862.08,576.25 L 863.89,576.03 L 865.66,575.76 L 868.83,574.68 L 870.38,574.04 L 873.44,572.08 L 874.22,571.53 L 875.83,570.23 L 878.38,567.96 L 879.26,567.14 L 880.96,565.65 L 881.79,564.93 L 883.26,563.75 L 883.96,563.21 L 885.05,562.47 L 886.05,562.00 L 886.24,562.00 L 887.08,562.53 L 887.56,562.87 L 888.86,563.95 L 889.55,564.54 L 891.12,565.98 L 891.92,566.73 L 893.58,568.35 L 894.41,569.17 L 895.98,570.79 L 896.73,571.58 L 898.03,573.02 L 898.63,573.70 L 899.46,574.78 L 900.00,575.80 L 900.00,575.93 L 899.44,576.70 L 899.08,577.15 L 897.92,578.43 L 897.28,579.12 L 895.68,580.76 L 892.93,583.42 L 891.19,585.06 L 887.75,587.86 L 886.03,589.18 L 882.55,591.36 L 880.79,592.39 L 877.18,594.03 L 871.50,595.93 L 870.88,596.10 L 869.08,596.36 L 868.11,596.48 L 865.76,596.66 L 863.31,596.82 L 857.66,596.89 L 856.26,596.88 L 853.52,596.81 L 852.18,596.77 L 849.73,596.61 L 848.57,596.53 L 846.62,596.29 L 845.73,596.17 M 748.18,591.48 L 747.27,591.08 L 745.94,590.24 L 745.67,590.03 L 745.35,589.68 L 745.23,589.27 L 745.61,588.46 L 746.25,587.14 L 746.55,586.52 L 747.06,585.55 L 747.31,585.11 L 747.75,584.44 L 747.97,584.15 L 748.40,583.74 L 748.84,583.39 L 749.96,583.26 L 752.46,583.55 L 753.57,583.71 L 755.40,583.62 L 756.26,583.50 L 757.62,582.81 L 758.25,582.39 L 759.21,581.06 L 760.25,578.31 L 760.36,577.84 L 760.41,577.16 L 760.40,576.86 L 760.12,576.45 L 759.93,576.27 L 759.24,576.04 L 757.64,575.81 L 756.78,575.72 L 755.67,575.52 L 755.41,575.40 L 754.95,574.92 L 754.73,574.62 L 754.27,573.63 L 754.03,573.06 L 753.48,571.39 L 753.19,570.44 L 752.49,567.89 L 752.30,567.18 L 751.88,565.58 L 751.66,564.74 L 751.16,562.85 L 750.91,561.87 L 750.34,559.67 L 749.39,556.00 L 748.95,554.31 L 748.15,551.71 L 747.76,550.53 L 747.03,548.91 L 746.68,548.22 L 746.00,547.53 L 745.00,547.50 L 744.63,547.73 L 743.89,547.46 L 743.53,547.23 L 742.91,546.23 L 742.64,545.67 L 742.28,544.22 L 742.18,541.82 L 742.50,538.50 L 752.31,538.21 L 762.11,537.93 L 761.81,542.71 L 761.74,543.72 L 761.58,545.14 L 761.49,545.77 L 761.21,546.55 L 761.06,546.88 L 760.61,547.16 L 759.66,547.18 L 759.15,547.10 L 758.55,547.42 L 758.44,547.55 L 758.31,548.00 L 758.27,548.26 L 758.30,548.97 L 758.33,549.37 L 758.51,550.40 L 758.62,550.95 L 758.95,552.33 L 759.13,553.07 L 759.62,554.85 L 760.53,558.00 L 760.89,559.24 L 761.67,562.06 L 761.86,562.74 L 762.18,563.98 L 762.56,565.50 L 762.73,566.22 L 762.99,567.06 L 763.12,567.37 L 763.37,567.30 L 763.44,567.22 L 763.60,566.86 L 763.69,566.65 L 763.89,566.02 L 764.00,565.66 L 764.25,564.74 L 764.71,563.01 L 765.11,561.50 L 765.98,558.83 L 766.18,558.24 L 766.55,557.33 L 766.99,556.51 L 767.10,556.37 L 767.37,555.83 L 767.50,555.52 L 767.78,554.72 L 768.51,551.84 L 768.65,551.06 L 768.78,549.91 L 768.81,549.39 L 768.68,548.63 L 768.57,548.28 L 768.12,547.75 L 767.04,547.02 L 766.61,546.79 L 765.99,546.29 L 765.72,546.02 L 765.38,545.36 L 765.24,544.99 L 765.14,544.05 L 765.19,542.18 L 765.50,538.50 L 775.25,538.21 L 785.00,537.93 L 785.00,542.46 L 785.00,543.40 L 784.93,544.75 L 784.87,545.35 L 784.65,546.13 L 784.51,546.46 L 784.09,546.82 L 783.17,547.00 L 782.67,547.00 L 781.55,547.66 L 780.23,549.25 L 780.18,549.36 L 779.99,549.83 L 779.88,550.10 L 779.61,550.85 L 779.32,551.66 L 778.53,553.94 L 778.11,555.17 L 777.15,558.03 L 776.66,559.51 L 775.64,562.62 L 775.13,564.18 L 774.16,567.21 L 773.68,568.69 L 772.86,571.31 L 772.48,572.53 L 771.92,574.40 L 771.80,574.81 L 771.64,575.42 L 771.50,576.00 L 771.46,576.26 L 771.24,577.06 L 771.11,577.50 L 770.75,578.58 L 770.36,579.71 L 769.35,582.33 L 768.84,583.63 L 767.83,585.93 L 767.60,586.44 L 767.19,587.26 L 766.72,588.05 L 766.23,588.66 L 765.08,589.73 L 764.48,590.24 L 763.14,591.09 L 762.44,591.48 L 760.94,592.09 L 760.17,592.36 L 758.54,592.73 L 756.90,593.03 L 753.40,592.89 L 752.53,592.79 L 750.77,592.39 L 749.90,592.15 M 710.50,576.14 L 706.50,575.50 L 706.00,550.00 L 705.97,548.46 L 705.91,545.65 L 705.89,544.29 L 705.83,541.82 L 705.81,540.63 L 705.76,538.49 L 705.73,537.45 L 705.68,535.61 L 705.65,534.72 L 705.60,533.16 L 705.57,532.40 L 705.51,531.09 L 705.44,529.84 L 705.29,528.00 L 705.21,527.18 L 705.01,526.06 L 704.91,525.58 L 704.64,525.02 L 704.50,524.78 L 704.14,524.58 L 703.50,524.50 L 703.09,524.50 L 702.48,524.32 L 702.21,524.20 L 701.82,523.67 L 701.65,523.36 L 701.43,522.36 L 701.19,520.21 L 700.88,515.91 L 708.69,516.21 L 716.50,516.50 L 716.78,527.64 L 717.06,538.77 L 721.10,537.75 L 722.23,537.46 L 724.80,537.35 L 726.10,537.36 L 728.74,537.80 L 730.04,538.08 L 732.42,539.00 L 735.36,540.85 L 736.04,541.45 L 737.23,543.00 L 737.80,543.82 L 738.77,545.73 L 739.22,546.72 L 739.93,548.89 L 740.25,549.99 L 740.70,552.31 L 740.89,553.48 L 741.06,555.85 L 741.10,557.04 L 740.97,559.36 L 740.87,560.50 L 740.42,562.67 L 739.37,565.63 L 738.82,566.78 L 737.15,569.01 L 736.24,570.09 L 734.07,572.00 L 732.95,572.90 L 730.57,574.25 L 727.10,575.41 L 725.21,575.69 L 721.85,576.09 L 720.25,576.26 L 717.41,576.43 L 716.05,576.49 L 713.66,576.45 L 712.51,576.40 M 722.63,567.00 L 722.97,567.00 L 723.78,566.81 L 724.20,566.68 L 725.09,566.28 L 727.55,564.55 L 728.04,564.05 L 728.77,563.10 L 729.09,562.61 L 729.52,561.53 L 729.70,560.95 L 729.90,559.52 L 730.00,556.77 L 730.00,555.72 L 729.81,553.82 L 729.69,552.91 L 729.27,551.29 L 729.04,550.51 L 728.41,549.19 L 728.07,548.56 L 727.24,547.55 L 726.81,547.09 L 725.80,546.41 L 725.28,546.12 L 724.12,545.80 L 723.52,545.68 L 722.22,545.74 L 720.13,546.26 L 717.00,547.44 L 717.00,557.83 L 717.00,558.96 L 717.01,560.87 L 717.02,561.77 L 717.05,563.25 L 717.07,563.94 L 717.14,565.04 L 717.17,565.55 L 717.27,566.31 L 717.33,566.66 L 717.47,567.13 L 717.55,567.34 L 717.75,567.58 L 718.58,567.61 L 719.02,567.44 L 720.42,567.18 L 721.16,567.07 M 907.50,572.84 L 906.26,572.21 L 903.71,570.19 L 902.45,569.09 L 900.13,566.46 L 899.03,565.10 L 897.28,562.26 L 896.90,561.56 L 896.29,560.20 L 895.68,558.25 L 895.34,556.70 L 895.16,553.38 L 895.15,551.71 L 895.59,548.35 L 895.88,546.70 L 896.89,543.58 L 899.01,539.49 L 899.87,538.24 L 901.77,536.12 L 902.75,535.11 L 904.96,533.45 L 906.11,532.67 L 908.74,531.40 L 913.24,529.86 L 914.23,529.59 L 915.84,529.27 L 916.61,529.15 L 918.03,529.13 L 918.74,529.16 L 920.30,529.46 L 923.21,530.28 L 924.56,530.71 L 927.03,531.76 L 928.23,532.32 L 930.39,533.63 L 931.43,534.31 L 933.27,535.87 L 934.15,536.67 L 935.66,538.46 L 936.37,539.38 L 937.54,541.39 L 938.08,542.42 L 938.90,544.63 L 939.26,545.77 L 939.72,548.18 L 940.00,552.01 L 940.00,553.14 L 939.78,555.34 L 939.63,556.43 L 939.12,558.52 L 938.82,559.55 L 938.03,561.52 L 937.60,562.49 L 936.54,564.32 L 935.98,565.22 L 934.66,566.91 L 933.96,567.73 L 932.39,569.24 L 931.58,569.98 L 929.77,571.31 L 926.79,573.09 L 925.54,573.73 L 922.41,574.52 L 920.79,574.83 L 917.27,574.95 L 915.50,574.93 L 912.06,574.39 L 910.39,574.04 M 922.99,563.51 L 924.09,562.94 L 925.78,561.63 L 926.55,560.93 L 927.64,559.27 L 928.12,558.38 L 928.68,556.22 L 929.00,552.29 L 929.00,551.20 L 928.89,549.51 L 928.81,548.72 L 928.47,547.43 L 928.26,546.82 L 927.61,545.69 L 926.19,543.89 L 925.62,543.25 L 924.58,542.30 L 924.05,541.88 L 922.93,541.27 L 922.35,541.00 L 920.95,540.63 L 918.30,540.26 L 917.12,540.14 L 915.42,540.08 L 914.64,540.08 L 913.42,540.37 L 912.82,540.57 L 911.64,541.36 L 909.42,543.25 L 908.56,544.04 L 907.38,545.27 L 906.86,545.86 L 906.23,546.99 L 905.97,547.57 L 905.73,548.96 L 905.62,551.75 L 905.62,553.24 L 906.03,555.83 L 906.31,557.07 L 907.28,559.15 L 907.84,560.13 L 909.37,561.71 L 912.33,563.54 L 913.36,563.99 L 915.25,564.56 L 916.16,564.78 L 917.89,564.89 L 918.74,564.89 L 920.41,564.54 L 921.25,564.31 M 944.67,574.33 L 944.62,574.29 L 944.53,573.91 L 944.49,573.68 L 944.41,572.96 L 944.37,572.57 L 944.30,571.55 L 944.26,571.00 L 944.20,569.73 L 944.14,568.39 L 944.07,565.10 L 944.02,559.58 L 944.03,557.91 L 944.04,555.10 L 944.05,553.79 L 944.10,551.61 L 944.12,550.59 L 944.22,548.90 L 944.27,548.11 L 944.43,546.80 L 944.61,545.55 L 945.25,543.61 L 946.77,540.51 L 947.27,539.61 L 948.32,538.03 L 948.86,537.28 L 950.07,535.94 L 950.71,535.30 L 952.17,534.11 L 954.74,532.39 L 956.08,531.59 L 959.34,530.24 L 961.01,529.62 L 964.36,528.76 L 965.17,528.59 L 966.68,528.36 L 967.40,528.26 L 968.68,528.21 L 969.28,528.20 L 970.24,528.35 L 971.21,528.81 L 971.33,528.93 L 971.54,529.55 L 971.63,529.91 L 971.76,530.89 L 971.81,534.61 L 971.50,539.50 L 966.31,540.02 L 965.12,540.14 L 963.07,540.54 L 962.10,540.78 L 960.46,541.46 L 959.70,541.84 L 958.43,542.88 L 957.84,543.45 L 956.92,544.92 L 956.49,545.72 L 955.85,547.69 L 955.57,548.74 L 955.18,551.29 L 955.02,552.64 L 954.85,555.84 L 954.80,561.45 L 954.81,563.10 L 954.83,565.83 L 954.83,567.10 L 954.78,569.15 L 954.74,570.09 L 954.59,571.55 L 954.50,572.21 L 954.21,573.19 L 954.05,573.62 L 953.58,574.20 L 953.33,574.45 L 952.65,574.74 L 952.28,574.86 L 951.36,574.96 L 949.65,575.00 L 948.46,575.00 L 946.40,574.80 L 945.95,574.74 L 945.27,574.59 L 944.97,574.51 M 988.54,572.94 L 987.42,572.38 L 985.38,571.15 L 984.40,570.51 L 982.64,569.11 L 981.80,568.40 L 980.32,566.84 L 979.61,566.05 L 978.41,564.34 L 977.84,563.47 L 976.92,561.62 L 976.49,560.67 L 975.85,558.67 L 975.57,557.65 L 975.21,555.49 L 975.00,552.10 L 975.00,551.16 L 975.05,549.49 L 975.09,548.69 L 975.23,547.26 L 975.40,545.88 L 976.12,543.57 L 976.55,542.45 L 977.96,540.26 L 978.36,539.70 L 979.33,538.51 L 981.05,536.56 L 982.39,535.11 L 985.26,532.88 L 986.74,531.87 L 990.04,530.49 L 991.76,529.89 L 995.71,529.28 L 996.74,529.18 L 998.97,529.10 L 1002.58,529.16 L 1010.00,529.54 L 1010.00,520.77 L 1010.00,512.00 L 1015.00,512.00 L 1020.00,512.00 L 1019.99,533.75 L 1019.99,536.81 L 1019.91,542.61 L 1019.88,544.01 L 1019.81,546.66 L 1019.78,547.95 L 1019.68,550.32 L 1019.64,551.47 L 1019.53,553.51 L 1019.47,554.49 L 1019.35,556.14 L 1019.28,556.91 L 1019.15,558.11 L 1018.93,559.32 L 1018.51,560.81 L 1017.12,563.56 L 1016.35,564.88 L 1014.33,567.25 L 1013.26,568.39 L 1010.76,570.32 L 1009.47,571.23 L 1006.63,572.67 L 1005.17,573.32 L 1002.13,574.20 L 1000.59,574.56 L 997.47,574.81 L 995.92,574.86 L 992.87,574.43 L 991.37,574.12 M 1006.75,559.01 L 1007.22,558.33 L 1007.89,557.03 L 1008.19,556.36 L 1008.57,554.84 L 1008.74,554.02 L 1008.91,551.95 L 1009.00,547.85 L 1009.00,540.00 L 1000.40,540.00 L 999.34,540.00 L 997.60,540.01 L 996.78,540.02 L 995.43,540.06 L 994.80,540.09 L 993.77,540.20 L 993.29,540.26 L 992.48,540.45 L 991.72,540.66 L 990.50,541.46 L 988.40,543.40 L 987.66,544.14 L 986.62,545.35 L 986.16,545.94 L 985.59,547.08 L 985.35,547.67 L 985.11,549.08 L 985.00,551.82 L 985.00,552.80 L 985.12,554.39 L 985.20,555.15 L 985.52,556.42 L 985.71,557.03 L 986.29,558.15 L 987.51,559.83 L 988.14,560.58 L 989.61,561.79 L 990.38,562.34 L 992.04,563.15 L 992.89,563.51 L 994.67,563.92 L 995.57,564.08 L 997.39,564.10 L 998.30,564.06 L 1000.08,563.69 L 1000.95,563.46 L 1002.61,562.71 L 1003.42,562.28 L 1004.87,561.14 L 1005.57,560.53 M 1036.00,573.33 L 1034.90,572.86 L 1032.91,571.71 L 1031.95,571.10 L 1030.17,569.62 L 1029.30,568.83 L 1027.64,566.92 L 1025.17,563.50 L 1024.62,562.65 L 1023.84,561.17 L 1023.50,560.43 L 1023.05,558.86 L 1022.86,558.03 L 1022.66,556.00 L 1022.55,552.00 L 1022.55,550.04 L 1022.87,546.73 L 1023.10,545.16 L 1023.96,542.45 L 1024.46,541.15 L 1025.93,538.84 L 1028.92,535.57 L 1029.32,535.21 L 1029.89,534.48 L 1030.13,534.10 L 1030.42,533.22 L 1030.54,532.75 L 1030.59,531.55 L 1030.45,529.23 L 1030.33,527.99 L 1029.81,525.65 L 1029.67,525.12 L 1029.37,524.26 L 1028.91,523.39 L 1028.47,522.86 L 1028.20,521.93 L 1028.15,521.51 L 1028.50,520.93 L 1028.74,520.71 L 1029.52,520.68 L 1030.96,521.46 L 1031.33,521.80 L 1031.90,522.23 L 1032.17,522.40 L 1032.61,522.51 L 1032.81,522.52 L 1033.21,522.31 L 1033.87,521.65 L 1034.19,521.27 L 1034.51,520.19 L 1034.41,518.63 L 1034.24,518.18 L 1034.28,517.48 L 1034.84,517.00 L 1035.21,517.00 L 1036.12,517.68 L 1036.58,518.10 L 1037.49,519.34 L 1037.91,520.00 L 1038.57,521.46 L 1039.03,523.47 L 1039.04,523.94 L 1039.07,524.52 L 1039.10,524.76 L 1039.22,524.91 L 1039.29,524.93 L 1039.53,524.64 L 1040.08,523.75 L 1040.36,523.27 L 1041.25,522.51 L 1042.62,522.00 L 1043.13,522.00 L 1043.61,521.54 L 1043.54,520.14 L 1043.37,519.60 L 1043.56,518.52 L 1043.73,518.00 L 1044.40,517.14 L 1044.78,516.75 L 1045.69,516.35 L 1047.07,516.54 L 1047.24,516.65 L 1047.50,517.07 L 1047.62,517.32 L 1047.75,517.98 L 1047.67,520.63 L 1047.52,521.55 L 1047.56,523.01 L 1047.60,523.31 L 1047.74,523.73 L 1048.06,524.00 L 1048.32,524.00 L 1048.72,523.71 L 1049.00,523.00 L 1049.00,522.73 L 1049.29,522.29 L 1050.00,522.00 L 1050.28,522.00 L 1050.71,522.60 L 1051.00,524.06 L 1051.00,524.63 L 1051.29,525.33 L 1052.00,525.50 L 1052.28,525.33 L 1052.71,524.46 L 1053.00,522.82 L 1053.00,522.37 L 1053.06,521.79 L 1053.10,521.55 L 1053.28,521.35 L 1053.40,521.30 L 1053.77,521.47 L 1054.61,522.09 L 1054.90,522.33 L 1055.32,522.92 L 1055.51,523.25 L 1055.74,524.04 L 1055.83,524.47 L 1055.88,525.53 L 1055.76,527.46 L 1055.65,528.42 L 1055.61,529.78 L 1055.63,530.40 L 1056.01,531.39 L 1056.27,531.88 L 1057.25,532.87 L 1059.65,534.78 L 1060.85,535.69 L 1062.72,537.60 L 1063.12,538.05 L 1063.66,538.85 L 1064.00,539.77 L 1064.00,539.88 L 1063.77,540.34 L 1063.62,540.60 L 1063.12,541.31 L 1062.83,541.70 L 1062.09,542.64 L 1061.68,543.13 L 1060.72,544.26 L 1059.71,545.43 L 1057.17,548.19 L 1052.83,552.67 L 1051.53,553.98 L 1049.37,556.15 L 1048.36,557.17 L 1046.75,558.84 L 1046.01,559.62 L 1044.89,560.85 L 1044.39,561.41 L 1043.71,562.28 L 1043.42,562.67 L 1043.12,563.25 L 1043.01,563.51 L 1043.04,563.87 L 1043.09,564.03 L 1043.39,564.24 L 1044.09,564.49 L 1044.49,564.59 L 1045.44,564.62 L 1045.94,564.62 L 1047.02,564.46 L 1048.12,564.27 L 1050.37,563.44 L 1051.46,562.97 L 1053.25,561.80 L 1053.63,561.50 L 1054.22,560.88 L 1054.73,559.94 L 1054.91,559.24 L 1055.47,558.44 L 1055.79,558.15 L 1056.68,558.17 L 1057.17,558.28 L 1058.45,559.14 L 1060.88,561.38 L 1064.15,564.75 L 1060.83,567.96 L 1059.98,568.78 L 1058.13,570.21 L 1057.19,570.89 L 1055.19,572.03 L 1054.17,572.57 L 1052.06,573.42 L 1050.99,573.81 L 1048.81,574.36 L 1047.71,574.60 L 1045.51,574.84 L 1044.41,574.92 L 1042.23,574.83 L 1041.15,574.75 L 1039.04,574.34 L 1038.00,574.09 M 1049.87,540.62 L 1049.91,540.40 L 1049.52,540.11 L 1049.26,539.99 L 1048.40,539.90 L 1047.92,539.88 L 1046.73,539.96 L 1046.10,540.02 L 1044.72,540.25 L 1043.32,540.51 L 1040.56,541.35 L 1039.92,541.58 L 1038.83,542.09 L 1037.61,542.89 L 1036.95,543.52 L 1035.74,545.40 L 1035.17,546.41 L 1034.27,548.69 L 1033.88,549.82 L 1033.47,551.96 L 1033.41,552.46 L 1033.41,553.35 L 1033.62,554.45 L 1033.75,554.78 L 1034.27,554.95 L 1034.60,554.94 L 1035.68,554.32 L 1035.99,554.10 L 1036.76,553.51 L 1037.17,553.18 L 1038.15,552.34 L 1038.67,551.88 L 1039.88,550.78 L 1042.00,548.81 L 1043.07,547.80 L 1045.02,545.90 L 1045.95,544.98 L 1047.51,543.39 L 1048.22,542.65 L 1049.21,541.54 L 1049.42,541.30 L 1049.69,540.95 L 1049.80,540.79 M 1045.39,525.42 L 1045.55,525.01 L 1045.37,524.40 L 1044.47,524.00 L 1044.06,524.00 L 1043.43,524.12 L 1043.00,524.42 L 1043.00,524.53 L 1042.82,525.18 L 1042.39,526.43 L 1042.28,526.72 L 1042.19,527.13 L 1042.17,527.31 L 1042.27,527.52 L 1042.35,527.60 L 1042.64,527.62 L 1043.31,527.43 L 1043.73,527.27 L 1044.56,526.60 L 1044.93,526.24 M 1068.63,573.47 L 1068.58,573.36 L 1068.50,572.91 L 1068.46,572.65 L 1068.38,571.95 L 1068.31,571.18 L 1068.18,569.01 L 1068.13,567.85 L 1068.05,565.09 L 1068.00,560.60 L 1068.00,558.77 L 1068.08,555.53 L 1068.13,553.98 L 1068.33,551.22 L 1068.45,549.90 L 1068.80,547.56 L 1068.99,546.44 L 1069.50,544.44 L 1069.78,543.48 L 1070.48,541.76 L 1070.85,540.93 L 1071.75,539.41 L 1072.23,538.67 L 1073.36,537.28 L 1075.34,535.26 L 1076.52,534.16 L 1078.82,532.46 L 1079.98,531.68 L 1082.38,530.53 L 1083.61,530.02 L 1086.33,529.35 L 1091.00,528.78 L 1095.50,528.50 L 1095.50,534.00 L 1095.50,539.50 L 1090.24,540.03 L 1089.25,540.13 L 1087.61,540.42 L 1086.84,540.58 L 1085.53,541.04 L 1084.91,541.29 L 1083.81,541.97 L 1082.24,543.30 L 1081.58,543.97 L 1080.68,545.13 L 1080.48,545.44 L 1080.17,546.18 L 1080.03,546.58 L 1079.80,547.58 L 1079.70,548.12 L 1079.53,549.50 L 1079.46,550.25 L 1079.34,552.14 L 1079.28,553.15 L 1079.17,555.66 L 1079.00,560.27 L 1078.50,574.50 L 1073.88,574.80 L 1072.99,574.86 L 1071.63,574.86 L 1071.01,574.85 L 1070.10,574.69 L 1069.70,574.59 L 1069.15,574.24 L 1068.91,574.03 M 206.62,551.48 L 206.17,551.03 L 205.47,549.69 L 204.99,547.68 L 204.99,547.60 L 204.99,547.18 L 204.99,546.93 L 204.99,546.16 L 204.99,545.74 L 204.99,544.65 L 204.99,544.07 L 204.99,542.67 L 204.99,541.94 L 204.99,540.25 L 204.98,539.38 L 204.98,537.42 L 204.98,535.41 L 204.98,530.64 L 204.98,528.16 L 204.98,522.56 L 204.98,519.68 L 204.98,513.40 L 204.98,510.20 L 204.98,503.39 L 204.97,492.75 L 204.96,440.00 L 150.85,440.00 L 147.54,440.00 L 141.51,440.00 L 138.59,440.00 L 133.31,439.99 L 130.75,439.99 L 126.16,439.98 L 123.94,439.98 L 119.98,439.96 L 118.08,439.95 L 114.71,439.93 L 113.09,439.91 L 110.25,439.88 L 108.90,439.86 L 106.54,439.81 L 105.41,439.79 L 103.48,439.72 L 102.57,439.69 L 101.01,439.61 L 100.28,439.57 L 99.04,439.48 L 97.88,439.37 L 96.30,439.11 L 95.60,438.96 L 94.63,438.60 L 93.39,437.93 L 92.74,437.53 L 91.66,436.68 L 91.15,436.22 L 90.34,435.07 L 89.96,434.44 L 89.37,432.74 L 89.10,431.80 L 88.71,429.29 L 88.62,428.60 L 88.48,427.03 L 88.41,426.21 L 88.31,424.36 L 88.26,423.39 L 88.19,421.21 L 88.16,420.08 L 88.12,417.55 L 88.10,416.24 L 88.09,413.33 L 88.09,411.82 L 88.09,408.50 L 88.10,406.78 L 88.13,403.01 L 88.19,396.82 L 88.50,365.83 L 91.77,362.92 L 95.03,360.00 L 150.02,360.00 L 205.00,360.00 L 205.00,305.22 L 205.00,301.47 L 205.00,294.67 L 205.00,291.39 L 205.00,285.49 L 205.00,282.65 L 205.02,277.58 L 205.03,275.14 L 205.06,270.84 L 205.08,268.77 L 205.13,265.16 L 205.16,263.44 L 205.25,260.45 L 205.30,259.04 L 205.42,256.61 L 205.49,255.47 L 205.65,253.54 L 205.74,252.63 L 205.96,251.13 L 206.08,250.43 L 206.35,249.29 L 206.50,248.76 L 206.84,247.91 L 207.02,247.52 L 207.43,246.90 L 207.86,246.32 L 208.95,245.57 L 211.01,244.49 L 211.31,244.34 L 212.10,244.08 L 212.54,243.95 L 213.71,243.74 L 214.35,243.64 L 216.03,243.48 L 216.94,243.41 L 219.23,243.29 L 220.47,243.23 L 223.52,243.15 L 225.15,243.11 L 229.07,243.06 L 231.15,243.04 L 236.07,243.02 L 237.36,243.01 L 240.17,243.01 L 244.70,243.00 L 246.47,243.00 L 249.72,243.01 L 251.30,243.01 L 254.19,243.01 L 255.58,243.02 L 258.12,243.03 L 259.35,243.04 L 261.56,243.06 L 262.63,243.07 L 264.56,243.09 L 265.49,243.11 L 267.14,243.14 L 268.73,243.18 L 271.22,243.30 L 272.36,243.36 L 274.09,243.53 L 274.89,243.62 L 276.08,243.86 L 276.63,243.99 L 277.47,244.31 L 278.58,244.89 L 279.32,245.34 L 280.55,246.22 L 281.13,246.68 L 282.05,247.79 L 282.48,248.41 L 283.13,250.05 L 283.44,250.97 L 283.87,253.45 L 283.97,254.13 L 284.13,255.71 L 284.21,256.53 L 284.33,258.42 L 284.38,259.40 L 284.47,261.63 L 284.50,262.80 L 284.56,265.41 L 284.58,266.77 L 284.61,269.81 L 284.62,271.38 L 284.63,274.87 L 284.63,276.68 L 284.63,280.67 L 284.61,287.25 L 284.60,290.06 L 284.60,295.16 L 284.60,297.62 L 284.63,302.02 L 284.64,304.13 L 284.69,307.82 L 284.71,309.58 L 284.78,312.56 L 284.82,313.97 L 284.92,316.26 L 284.97,317.31 L 285.08,318.89 L 285.15,319.59 L 285.29,320.47 L 285.53,321.00 L 285.81,321.00 L 286.85,320.58 L 288.58,319.58 L 289.18,319.16 L 290.94,318.11 L 291.90,317.56 L 294.27,316.30 L 295.51,315.65 L 298.30,314.27 L 299.73,313.56 L 302.77,312.13 L 305.84,310.70 L 311.98,308.05 L 313.46,307.43 L 316.20,306.35 L 319.81,305.04 L 320.94,304.66 L 323.59,303.88 L 324.97,303.49 L 328.08,302.69 L 329.68,302.29 L 333.17,301.48 L 334.96,301.08 L 338.76,300.29 L 342.63,299.50 L 351.02,298.02 L 364.00,296.05 L 364.29,296.01 L 365.11,295.92 L 365.56,295.88 L 366.67,295.79 L 367.85,295.70 L 371.01,295.49 L 372.71,295.39 L 376.80,295.17 L 378.95,295.06 L 383.81,294.83 L 386.32,294.71 L 391.81,294.48 L 394.62,294.36 L 400.58,294.14 L 419.50,293.51 L 421.83,293.44 L 426.22,293.30 L 428.36,293.24 L 432.38,293.11 L 434.35,293.04 L 438.02,292.92 L 439.82,292.85 L 443.18,292.73 L 444.82,292.67 L 447.89,292.54 L 449.39,292.48 L 452.18,292.36 L 454.90,292.23 L 459.63,291.98 L 461.89,291.85 L 465.83,291.57 L 467.71,291.43 L 471.02,291.13 L 472.61,290.97 L 475.49,290.63 L 479.50,290.06 L 481.98,289.66 L 486.62,288.87 L 488.90,288.47 L 493.16,287.64 L 495.25,287.23 L 499.16,286.38 L 501.07,285.94 L 504.67,285.05 L 506.43,284.59 L 509.73,283.65 L 511.35,283.17 L 514.40,282.17 L 522.74,278.90 L 523.41,278.60 L 524.55,278.12 L 525.10,277.89 L 526.04,277.56 L 526.94,277.26 L 528.34,277.13 L 529.01,277.14 L 530.24,277.63 L 532.37,279.07 L 533.18,279.72 L 534.22,281.07 L 534.63,281.79 L 534.86,283.49 L 534.87,283.95 L 534.73,284.99 L 534.64,285.53 L 534.31,286.75 L 534.11,287.39 L 533.58,288.83 L 532.56,291.28 L 532.22,292.04 L 531.45,293.88 L 531.06,294.84 L 530.24,296.90 L 529.84,297.93 L 529.08,299.94 L 528.12,302.65 L 527.98,303.05 L 527.62,304.09 L 527.43,304.64 L 526.98,305.95 L 526.50,307.31 L 525.35,310.60 L 521.50,321.50 L 520.87,323.29 L 519.63,326.82 L 519.02,328.56 L 517.93,331.71 L 517.42,333.20 L 516.61,335.62 L 516.43,336.15 L 516.15,337.03 L 515.85,338.00 L 515.56,338.96 L 514.74,341.35 L 513.55,344.50 L 513.46,344.71 L 513.20,345.33 L 513.07,345.67 L 512.72,346.53 L 512.35,347.45 L 511.39,349.85 L 510.89,351.12 L 509.76,353.99 L 507.99,358.50 L 506.65,361.95 L 503.77,368.65 L 502.30,371.97 L 499.16,378.41 L 497.56,381.60 L 494.16,387.78 L 492.43,390.84 L 488.78,396.77 L 486.92,399.71 L 483.00,405.39 L 481.01,408.20 L 476.83,413.63 L 474.70,416.31 L 470.26,421.50 L 463.29,429.00 L 461.74,430.58 L 458.78,433.50 L 457.32,434.92 L 454.46,437.57 L 451.62,440.17 L 445.88,444.86 L 442.95,447.17 L 436.55,451.65 L 434.88,452.78 L 431.30,455.10 L 425.49,458.71 L 424.75,459.16 L 422.96,460.15 L 422.01,460.66 L 419.87,461.74 L 417.65,462.84 L 412.53,465.17 L 409.90,466.33 L 404.45,468.55 L 396.62,471.45 L 394.64,472.13 L 390.74,473.31 L 388.79,473.87 L 384.75,474.85 L 382.69,475.31 L 378.25,476.12 L 375.97,476.50 L 370.89,477.16 L 368.25,477.47 L 362.28,478.01 L 360.72,478.14 L 357.39,478.38 L 355.68,478.50 L 352.04,478.73 L 350.18,478.84 L 346.20,479.05 L 344.16,479.15 L 339.81,479.35 L 337.58,479.45 L 332.83,479.64 L 325.20,479.92 L 321.18,480.06 L 313.65,480.41 L 309.96,480.59 L 303.08,481.03 L 299.72,481.26 L 293.48,481.78 L 290.44,482.05 L 284.82,482.67 L 282.09,482.98 L 277.09,483.69 L 274.67,484.05 L 270.26,484.85 L 268.13,485.26 L 264.31,486.15 L 259.22,487.60 L 257.71,488.09 L 255.27,488.66 L 254.13,488.88 L 252.22,488.88 L 251.32,488.81 L 249.72,488.23 L 247.41,486.68 L 246.81,486.16 L 245.98,485.26 L 245.62,484.80 L 245.18,483.75 L 245.00,483.18 L 244.84,481.65 L 244.81,478.43 L 244.84,476.70 L 245.48,472.90 L 245.90,470.96 L 247.28,466.81 L 248.06,464.70 L 250.13,460.28 L 251.24,458.04 L 253.95,453.43 L 255.37,451.11 L 258.66,446.39 L 260.37,444.03 L 264.18,439.29 L 266.15,436.92 L 270.45,432.25 L 277.37,425.39 L 279.11,423.78 L 282.23,421.06 L 283.80,419.73 L 287.17,417.13 L 288.07,416.46 L 290.04,415.05 L 291.07,414.32 L 293.37,412.74 L 294.57,411.92 L 297.31,410.10 L 302.00,407.01 L 302.18,406.89 L 302.74,406.57 L 303.05,406.40 L 303.84,405.99 L 304.68,405.56 L 306.88,404.48 L 308.05,403.92 L 310.70,402.69 L 312.06,402.06 L 314.87,400.79 L 316.27,400.16 L 318.97,398.98 L 320.27,398.41 L 322.56,397.45 L 323.63,397.01 L 325.23,396.39 L 325.57,396.27 L 326.08,396.10 L 326.55,396.00 L 326.67,396.00 L 327.32,395.84 L 327.69,395.74 L 328.74,395.40 L 332.72,393.96 L 334.22,393.38 L 337.63,392.09 L 339.36,391.45 L 342.78,390.19 L 344.44,389.59 L 347.32,388.57 L 347.98,388.34 L 349.10,387.96 L 350.42,387.53 L 351.02,387.34 L 351.58,386.84 L 351.39,385.99 L 351.26,385.86 L 350.58,385.73 L 350.18,385.68 L 349.03,385.67 L 348.42,385.68 L 346.95,385.79 L 346.18,385.85 L 344.52,386.05 L 342.84,386.27 L 339.47,386.91 L 338.67,387.09 L 337.25,387.46 L 335.50,388.05 L 335.22,388.16 L 334.37,388.45 L 333.90,388.60 L 332.77,388.93 L 329.00,389.87 L 326.03,390.52 L 320.20,392.00 L 317.32,392.77 L 311.68,394.47 L 308.89,395.35 L 303.48,397.26 L 300.81,398.24 L 295.65,400.34 L 293.11,401.42 L 288.24,403.70 L 285.85,404.87 L 281.31,407.32 L 279.08,408.57 L 274.89,411.17 L 269.04,415.24 L 267.11,416.68 L 263.29,419.87 L 261.39,421.51 L 257.65,425.04 L 255.79,426.85 L 252.17,430.69 L 250.37,432.64 L 246.90,436.73 L 245.19,438.81 L 241.92,443.11 L 240.31,445.28 L 237.27,449.74 L 235.79,451.99 L 233.02,456.56 L 229.23,463.50 L 228.33,465.27 L 226.58,468.86 L 225.73,470.62 L 224.26,473.83 L 223.92,474.58 L 223.34,475.93 L 223.06,476.57 L 222.62,477.64 L 222.42,478.14 L 222.16,478.88 L 222.00,479.54 L 222.00,479.63 L 221.89,480.05 L 221.81,480.28 L 221.58,480.93 L 220.55,483.35 L 220.30,483.91 L 219.71,485.44 L 219.41,486.27 L 218.76,488.28 L 218.43,489.34 L 217.73,491.74 L 217.38,492.98 L 216.65,495.69 L 215.92,498.47 L 214.47,504.60 L 212.49,514.00 L 212.37,514.63 L 212.12,516.19 L 211.99,517.02 L 211.73,518.94 L 211.60,519.94 L 211.33,522.17 L 211.20,523.31 L 210.94,525.78 L 210.67,528.31 L 210.18,533.86 L 209.53,542.48 L 209.44,543.85 L 209.25,546.38 L 209.16,547.59 L 208.97,549.62 L 208.89,550.55 L 208.73,551.87 L 208.56,552.78 L 208.47,552.86 L 207.86,552.53 L 207.50,552.29 M 1050.55,518.26 L 1050.44,517.98 L 1050.43,517.37 L 1050.46,517.07 L 1050.69,516.46 L 1050.97,515.84 L 1052.05,514.75 L 1052.64,514.25 L 1054.05,513.62 L 1056.13,513.54 L 1056.48,513.65 L 1056.98,513.74 L 1057.20,513.76 L 1057.45,513.66 L 1057.55,513.58 L 1057.58,513.28 L 1057.39,512.57 L 1057.22,512.13 L 1056.70,511.46 L 1055.89,511.00 L 1055.65,511.00 L 1055.26,510.40 L 1055.00,508.94 L 1055.00,508.37 L 1054.73,507.66 L 1054.07,507.46 L 1053.82,507.61 L 1053.22,507.23 L 1052.46,505.89 L 1052.27,505.26 L 1052.36,504.18 L 1052.48,503.69 L 1053.06,502.99 L 1053.39,502.70 L 1054.26,502.56 L 1055.67,503.14 L 1056.11,503.51 L 1057.16,503.56 L 1059.18,502.59 L 1059.80,502.15 L 1061.30,501.47 L 1063.22,501.00 L 1063.71,501.00 L 1064.40,500.78 L 1064.75,500.25 L 1064.68,500.04 L 1064.86,499.72 L 1065.49,499.50 L 1065.62,499.50 L 1065.88,499.76 L 1066.01,499.92 L 1066.24,500.45 L 1066.68,502.73 L 1066.74,503.65 L 1066.33,505.26 L 1066.05,506.01 L 1065.02,507.23 L 1064.44,507.79 L 1062.88,508.55 L 1060.03,509.08 L 1059.33,509.10 L 1058.62,509.29 L 1058.50,509.34 L 1058.48,509.47 L 1058.78,509.67 L 1058.96,509.74 L 1059.21,510.14 L 1059.33,510.37 L 1059.46,511.02 L 1059.57,511.73 L 1059.45,513.60 L 1059.34,514.57 L 1058.84,516.49 L 1057.75,518.75 L 1057.37,519.22 L 1056.10,519.76 L 1055.42,519.96 L 1053.88,519.98 L 1053.12,519.93 L 1051.79,519.46 L 1051.20,519.17 M 1061.00,518.00 L 1061.00,517.44 L 1061.44,516.58 L 1062.50,516.00 L 1062.92,516.00 L 1063.56,516.58 L 1064.00,518.00 L 1064.00,518.56 L 1063.56,519.42 L 1062.50,520.00 L 1062.08,520.00 L 1061.44,519.42 L 1061.17,519.06 M 1043.19,508.92 L 1043.29,508.63 L 1043.72,508.17 L 1044.50,507.85 L 1044.76,507.85 L 1045.28,508.17 L 1045.81,508.92 L 1045.91,509.22 L 1045.57,509.68 L 1044.50,510.00 L 1044.04,510.00 L 1043.43,509.68 L 1043.19,509.49 M 1071.00,503.69 L 1071.00,503.27 L 1071.19,502.53 L 1071.33,502.17 L 1071.81,501.52 L 1072.09,501.20 L 1072.89,500.60 L 1074.50,499.70 L 1075.37,499.29 L 1076.51,498.78 L 1077.00,498.58 L 1077.55,498.54 L 1077.77,498.58 L 1077.94,499.05 L 1078.00,500.36 L 1078.00,501.02 L 1077.52,502.36 L 1077.21,503.01 L 1076.27,504.17 L 1075.76,504.71 L 1074.56,505.49 L 1072.67,506.00 L 1072.13,506.00 L 1071.43,505.40 L 1071.15,505.01 M 1080.39,500.57 L 1080.23,500.16 L 1080.33,499.16 L 1080.43,498.65 L 1080.93,497.66 L 1081.22,497.20 L 1081.97,496.48 L 1083.19,496.00 L 1083.36,496.00 L 1083.61,496.23 L 1083.71,496.37 L 1083.83,496.83 L 1083.93,497.33 L 1083.79,498.70 L 1083.68,499.39 L 1083.21,500.65 L 1082.25,501.76 L 1081.91,501.87 L 1081.19,501.58 L 1080.85,501.36 M 1070.00,492.50 L 1070.00,492.09 L 1070.26,491.44 L 1070.89,491.00 L 1071.14,491.00 L 1071.69,491.44 L 1072.36,492.50 L 1072.54,492.96 L 1072.38,493.59 L 1071.47,494.00 L 1071.06,494.00 L 1070.43,493.56 L 1070.17,493.29 M 1078.74,492.55 L 1078.23,492.18 L 1077.55,491.06 L 1077.26,490.47 L 1077.05,489.22 L 1077.00,488.62 L 1077.28,487.66 L 1078.30,487.00 L 1078.76,487.00 L 1079.65,487.36 L 1080.09,487.59 L 1080.84,488.30 L 1081.19,488.69 L 1081.68,489.63 L 1082.00,491.14 L 1082.00,491.74 L 1081.78,492.59 L 1081.64,492.95 L 1081.14,493.31 L 1080.86,493.43 L 1080.12,493.30 L 1079.72,493.18 M 1088.00,487.77 L 1088.00,487.39 L 1088.32,486.54 L 1088.53,486.11 L 1089.14,485.31 L 1089.46,484.93 L 1090.20,484.37 L 1091.27,484.00 L 1091.51,484.00 L 1091.79,484.66 L 1091.82,486.24 L 1091.73,486.84 L 1091.08,487.82 L 1090.70,488.26 L 1089.78,488.77 L 1089.32,488.95 L 1088.55,488.84 L 1088.38,488.76 L 1088.15,488.46 L 1088.05,488.29 M 701.00,446.51 L 701.00,432.00 L 711.00,432.00 L 721.00,432.00 L 721.00,362.50 L 721.00,293.00 L 711.00,293.00 L 701.00,293.00 L 701.00,278.50 L 701.00,264.00 L 727.45,264.00 L 753.90,264.00 L 754.20,270.01 L 754.50,276.02 L 760.00,271.50 L 761.76,270.06 L 765.84,267.47 L 767.95,266.24 L 772.50,264.18 L 774.81,263.22 L 779.54,261.80 L 786.50,260.53 L 787.40,260.45 L 789.52,260.37 L 790.62,260.34 L 793.03,260.37 L 795.48,260.43 L 800.61,260.82 L 801.86,260.94 L 804.23,261.22 L 805.38,261.37 L 807.44,261.71 L 808.42,261.88 L 810.01,262.26 L 811.71,262.86 L 811.96,262.99 L 812.94,263.48 L 813.50,263.76 L 814.97,264.48 L 820.29,267.06 L 821.38,267.59 L 823.56,268.88 L 824.65,269.56 L 826.82,271.13 L 828.98,272.77 L 833.07,276.73 L 835.05,278.79 L 838.56,283.36 L 842.84,290.55 L 843.76,292.46 L 845.46,295.95 L 845.84,296.73 L 846.46,297.98 L 847.06,299.17 L 847.18,299.40 L 847.48,300.36 L 847.64,300.91 L 848.00,302.36 L 849.04,307.67 L 849.34,309.55 L 850.12,313.52 L 850.31,314.46 L 850.67,316.10 L 851.15,318.00 L 851.30,318.53 L 851.52,320.17 L 851.62,321.08 L 851.73,323.35 L 851.78,324.55 L 851.79,327.29 L 851.79,328.70 L 851.70,331.74 L 851.60,334.83 L 851.13,341.25 L 851.00,342.82 L 850.66,345.81 L 850.08,349.93 L 849.78,351.73 L 848.93,355.35 L 848.47,357.16 L 847.31,360.76 L 846.69,362.55 L 845.25,366.07 L 844.50,367.82 L 842.81,371.21 L 841.94,372.88 L 840.03,376.08 L 839.06,377.65 L 836.97,380.59 L 835.90,382.02 L 833.65,384.66 L 830.13,388.19 L 827.97,390.13 L 823.15,393.46 L 820.67,395.03 L 815.31,397.60 L 812.58,398.79 L 806.85,400.59 L 803.95,401.38 L 797.98,402.38 L 794.98,402.77 L 788.93,402.95 L 785.91,402.93 L 779.92,402.27 L 776.96,401.84 L 771.19,400.32 L 762.95,397.05 L 757.00,394.10 L 757.00,413.02 L 757.00,431.94 L 768.75,432.22 L 780.50,432.50 L 780.50,446.50 L 780.50,460.50 L 740.75,460.76 L 701.00,461.02 L 701.00,446.51 M 790.08,372.89 L 791.36,372.61 L 794.00,371.77 L 795.31,371.30 L 797.85,370.15 L 799.09,369.54 L 801.33,368.19 L 804.13,366.03 L 804.48,365.70 L 805.27,364.77 L 805.67,364.27 L 806.54,363.07 L 807.41,361.81 L 809.19,358.77 L 810.06,357.22 L 811.56,354.09 L 811.91,353.33 L 812.48,351.91 L 813.12,349.98 L 813.21,349.63 L 813.40,348.71 L 813.49,348.22 L 813.66,347.05 L 813.82,345.82 L 814.11,342.78 L 814.24,341.19 L 814.46,337.66 L 814.56,335.87 L 814.70,332.19 L 814.75,330.36 L 814.80,326.85 L 814.81,325.15 L 814.76,322.14 L 814.72,320.72 L 814.55,318.54 L 814.50,318.06 L 814.38,317.31 L 814.17,316.54 L 814.04,316.26 L 813.71,315.41 L 813.53,314.94 L 813.15,313.82 L 812.04,310.15 L 811.58,308.45 L 810.17,305.14 L 809.38,303.51 L 807.41,300.46 L 806.37,298.98 L 803.94,296.34 L 799.91,293.00 L 799.26,292.57 L 798.18,291.85 L 797.66,291.52 L 796.74,290.99 L 795.84,290.49 L 793.97,289.95 L 793.46,289.84 L 792.27,289.69 L 791.63,289.63 L 790.10,289.56 L 789.27,289.53 L 787.27,289.51 L 783.61,289.50 L 782.11,289.50 L 779.42,289.57 L 778.12,289.62 L 775.80,289.81 L 774.67,289.92 L 772.64,290.25 L 771.66,290.43 L 769.85,290.92 L 768.08,291.45 L 764.91,293.08 L 760.10,296.57 L 757.00,299.18 L 757.00,333.00 L 757.00,366.83 L 761.62,369.41 L 762.57,369.94 L 764.62,370.86 L 765.66,371.30 L 767.88,372.04 L 770.14,372.73 L 775.01,373.53 L 777.48,373.83 L 782.55,373.83 L 785.09,373.73 M 865.00,446.50 L 865.00,432.00 L 875.00,432.00 L 885.00,432.00 L 885.00,362.54 L 885.00,293.07 L 875.25,292.79 L 865.50,292.50 L 865.22,278.25 L 864.95,264.00 L 891.47,264.00 L 918.00,264.00 L 918.00,270.00 L 918.00,270.82 L 918.04,272.33 L 918.07,273.05 L 918.17,274.24 L 918.22,274.78 L 918.35,275.53 L 918.57,276.00 L 918.64,276.00 L 919.08,275.72 L 919.33,275.54 L 920.05,274.96 L 922.82,272.47 L 923.50,271.81 L 925.12,270.51 L 925.97,269.87 L 927.88,268.62 L 929.85,267.39 L 934.38,265.20 L 936.71,264.16 L 941.57,262.51 L 948.69,260.91 L 950.59,260.65 L 954.30,260.36 L 956.15,260.26 L 959.76,260.29 L 961.56,260.34 L 965.06,260.68 L 966.79,260.89 L 970.17,261.53 L 971.84,261.89 L 975.09,262.83 L 976.69,263.34 L 979.80,264.57 L 981.33,265.22 L 984.28,266.74 L 985.74,267.53 L 988.54,269.33 L 989.92,270.26 L 992.55,272.33 L 993.84,273.40 L 996.29,275.73 L 997.50,276.94 L 999.76,279.53 L 1000.87,280.86 L 1002.94,283.72 L 1003.96,285.18 L 1005.83,288.28 L 1006.73,289.86 L 1008.39,293.20 L 1009.19,294.91 L 1010.63,298.49 L 1012.52,304.12 L 1013.01,305.76 L 1013.82,309.46 L 1014.20,311.36 L 1014.79,315.49 L 1015.07,317.60 L 1015.44,322.00 L 1015.61,324.23 L 1015.76,328.77 L 1015.81,331.04 L 1015.75,335.56 L 1015.68,337.81 L 1015.39,342.16 L 1015.21,344.31 L 1014.69,348.35 L 1013.63,353.90 L 1012.88,357.02 L 1010.88,362.92 L 1009.79,365.81 L 1007.14,371.21 L 1005.74,373.84 L 1002.50,378.69 L 1000.80,381.04 L 997.00,385.30 L 995.04,387.34 L 990.73,390.95 L 988.52,392.67 L 983.75,395.59 L 981.31,396.95 L 976.12,399.13 L 967.92,401.52 L 966.24,401.87 L 962.74,402.37 L 960.98,402.58 L 957.39,402.80 L 955.59,402.88 L 951.98,402.83 L 950.18,402.78 L 946.61,402.47 L 944.85,402.29 L 941.41,401.73 L 939.71,401.42 L 936.47,400.61 L 934.88,400.18 L 931.91,399.14 L 927.85,397.32 L 926.38,396.55 L 923.85,395.24 L 923.30,394.95 L 922.46,394.53 L 921.75,394.17 L 921.70,394.15 L 921.60,394.49 L 921.55,394.73 L 921.46,395.54 L 921.41,396.01 L 921.33,397.25 L 921.29,397.92 L 921.22,399.53 L 921.19,400.38 L 921.13,402.31 L 921.10,403.31 L 921.06,405.51 L 921.00,412.88 L 921.00,431.94 L 932.75,432.22 L 944.50,432.50 L 944.78,446.75 L 945.05,461.00 L 905.03,461.00 L 865.00,461.00 L 865.00,446.50 M 954.18,372.87 L 955.56,372.57 L 958.16,371.74 L 959.43,371.28 L 961.80,370.13 L 962.96,369.52 L 965.10,368.04 L 966.15,367.27 L 968.07,365.47 L 969.01,364.54 L 970.71,362.42 L 971.53,361.32 L 973.01,358.88 L 973.73,357.62 L 974.99,354.85 L 976.64,350.33 L 976.93,349.40 L 977.41,347.76 L 977.64,346.97 L 978.01,345.53 L 978.35,344.12 L 978.73,341.37 L 978.80,340.65 L 978.89,339.09 L 978.92,338.27 L 978.94,336.43 L 978.94,335.47 L 978.91,333.23 L 978.80,329.30 L 978.73,327.27 L 978.51,323.58 L 978.38,321.80 L 978.00,318.56 L 977.79,316.98 L 977.25,314.12 L 976.96,312.74 L 976.22,310.19 L 975.83,308.95 L 974.89,306.65 L 974.39,305.52 L 973.21,303.41 L 972.59,302.36 L 971.16,300.36 L 968.71,297.41 L 967.90,296.52 L 966.36,294.99 L 965.60,294.26 L 964.10,293.04 L 963.34,292.47 L 961.80,291.54 L 961.02,291.11 L 959.36,290.43 L 958.51,290.12 L 956.66,289.68 L 955.71,289.49 L 953.59,289.25 L 952.49,289.15 L 950.02,289.08 L 945.84,289.15 L 944.64,289.20 L 942.50,289.33 L 941.47,289.41 L 939.60,289.63 L 937.79,289.88 L 934.61,290.76 L 933.04,291.28 L 929.84,292.88 L 929.00,293.33 L 927.21,294.42 L 924.26,296.33 L 921.01,298.50 L 921.01,332.66 L 921.00,366.83 L 925.62,369.41 L 926.57,369.94 L 928.63,370.87 L 929.67,371.31 L 931.90,372.05 L 934.16,372.74 L 939.03,373.53 L 941.50,373.83 L 946.60,373.82 L 949.15,373.72 M 588.25,401.48 L 586.76,401.16 L 583.89,400.29 L 582.47,399.81 L 579.75,398.64 L 578.41,398.03 L 575.86,396.58 L 574.61,395.83 L 572.25,394.13 L 571.10,393.24 L 568.96,391.29 L 567.92,390.29 L 566.01,388.11 L 565.08,387.00 L 563.42,384.60 L 561.24,380.78 L 560.86,380.02 L 560.17,378.23 L 559.84,377.31 L 559.27,375.25 L 558.73,373.15 L 558.02,368.37 L 557.73,365.94 L 557.57,360.86 L 558.01,353.43 L 558.14,352.39 L 558.44,350.40 L 558.58,349.43 L 558.89,347.74 L 559.04,346.94 L 559.31,345.74 L 559.65,344.68 L 560.49,343.23 L 562.16,340.59 L 563.00,339.32 L 564.71,337.02 L 565.57,335.91 L 567.35,333.92 L 568.25,332.96 L 570.14,331.23 L 571.10,330.40 L 573.15,328.91 L 574.19,328.19 L 576.42,326.90 L 577.57,326.28 L 580.03,325.15 L 584.03,323.62 L 586.73,322.69 L 591.74,321.30 L 594.26,320.68 L 599.64,319.78 L 601.05,319.59 L 604.12,319.26 L 605.70,319.11 L 609.20,318.86 L 611.01,318.74 L 615.06,318.55 L 621.89,318.32 L 639.27,317.83 L 638.73,309.91 L 638.65,308.66 L 638.40,306.41 L 638.26,305.33 L 637.89,303.37 L 637.70,302.43 L 637.20,300.74 L 636.93,299.93 L 636.29,298.47 L 635.61,297.07 L 633.73,294.84 L 630.05,292.11 L 629.06,291.56 L 626.44,290.67 L 625.04,290.27 L 621.69,289.70 L 619.94,289.45 L 615.96,289.19 L 613.90,289.09 L 609.38,289.13 L 607.06,289.19 L 602.10,289.53 L 599.57,289.74 L 594.26,290.38 L 591.57,290.73 L 586.01,291.67 L 577.50,293.41 L 576.54,293.63 L 574.68,294.03 L 573.78,294.22 L 572.18,294.53 L 571.43,294.68 L 570.27,294.87 L 569.22,295.00 L 568.97,295.00 L 568.62,294.35 L 568.54,294.13 L 568.41,293.47 L 568.36,293.10 L 568.27,292.14 L 568.23,291.61 L 568.18,290.31 L 568.16,289.61 L 568.15,287.94 L 568.14,287.05 L 568.16,284.97 L 568.22,281.35 L 568.50,267.71 L 573.00,266.47 L 574.80,265.98 L 578.19,265.13 L 579.86,264.72 L 583.09,264.03 L 586.31,263.38 L 592.81,262.51 L 594.49,262.32 L 598.03,262.03 L 599.84,261.90 L 603.75,261.72 L 605.76,261.64 L 610.17,261.55 L 617.50,261.50 L 619.95,261.50 L 624.06,261.51 L 625.99,261.52 L 629.22,261.56 L 630.73,261.59 L 633.24,261.67 L 634.42,261.72 L 636.39,261.86 L 637.33,261.94 L 638.93,262.16 L 639.71,262.28 L 641.12,262.58 L 645.50,263.91 L 647.07,264.44 L 649.93,265.59 L 651.32,266.17 L 653.86,267.43 L 655.10,268.08 L 657.34,269.48 L 658.44,270.21 L 660.43,271.79 L 661.40,272.60 L 663.17,274.39 L 664.04,275.31 L 665.63,277.33 L 666.41,278.38 L 667.85,280.66 L 669.89,284.43 L 670.44,285.54 L 671.37,287.74 L 671.80,288.86 L 672.53,291.25 L 672.87,292.50 L 673.41,295.35 L 673.67,296.86 L 674.06,300.41 L 674.15,301.36 L 674.30,303.43 L 674.38,304.50 L 674.50,306.83 L 674.56,308.03 L 674.66,310.66 L 674.70,312.02 L 674.78,314.98 L 674.81,316.50 L 674.86,319.82 L 674.89,321.53 L 674.92,325.24 L 674.93,327.15 L 674.95,331.28 L 674.97,338.00 L 675.00,370.50 L 684.25,370.50 L 693.50,370.50 L 693.50,385.00 L 693.50,399.50 L 667.50,399.50 L 641.50,399.50 L 641.21,392.79 L 640.91,386.07 L 635.21,390.46 L 633.38,391.87 L 629.70,394.32 L 627.86,395.49 L 624.14,397.46 L 622.27,398.39 L 618.49,399.88 L 616.59,400.57 L 612.73,401.60 L 610.80,402.05 L 606.86,402.61 L 604.87,402.83 L 600.83,402.93 L 598.79,402.92 L 594.64,402.55 L 592.54,402.31 M 622.31,373.83 L 623.48,373.34 L 626.08,371.94 L 627.41,371.19 L 630.12,369.40 L 631.47,368.47 L 634.05,366.46 L 637.48,363.38 L 637.77,363.09 L 638.20,362.16 L 638.40,361.62 L 638.67,360.04 L 638.79,359.15 L 638.93,356.71 L 638.95,356.04 L 638.98,354.50 L 639.00,351.86 L 639.00,341.86 L 623.25,342.18 L 621.44,342.22 L 618.39,342.29 L 616.95,342.33 L 614.55,342.42 L 613.42,342.47 L 611.54,342.60 L 610.66,342.66 L 609.18,342.84 L 607.78,343.03 L 605.67,343.63 L 602.55,345.00 L 601.67,345.45 L 600.14,346.33 L 599.41,346.77 L 598.16,347.67 L 597.58,348.13 L 596.59,349.10 L 596.13,349.59 L 595.38,350.65 L 595.04,351.20 L 594.51,352.39 L 594.26,353.01 L 593.92,354.38 L 593.77,355.09 L 593.60,356.67 L 593.50,359.32 L 593.50,361.08 L 593.93,364.58 L 594.07,365.40 L 594.41,366.82 L 595.00,368.47 L 595.46,369.38 L 596.79,370.97 L 597.52,371.72 L 599.32,373.00 L 600.27,373.59 L 602.45,374.53 L 603.58,374.96 L 606.04,375.54 L 607.30,375.79 L 609.96,376.01 L 611.31,376.07 L 614.07,375.89 L 615.46,375.76 L 618.24,375.18 L 619.62,374.83 M 1033.44,398.71 L 1033.41,398.62 L 1033.35,398.17 L 1033.32,397.91 L 1033.27,397.14 L 1033.22,396.30 L 1033.17,393.83 L 1033.15,392.50 L 1033.15,389.28 L 1033.22,383.95 L 1033.50,370.50 L 1043.25,370.21 L 1053.00,369.93 L 1053.00,331.50 L 1053.00,293.07 L 1043.25,292.79 L 1033.50,292.50 L 1033.22,278.23 L 1032.94,263.97 L 1060.61,264.23 L 1088.28,264.50 L 1088.27,317.25 L 1088.26,370.00 L 1098.16,370.00 L 1108.05,370.00 L 1107.78,384.75 L 1107.50,399.50 L 1070.72,399.76 L 1068.87,399.78 L 1065.43,399.80 L 1063.75,399.81 L 1060.63,399.82 L 1059.12,399.83 L 1056.32,399.83 L 1054.96,399.84 L 1052.46,399.84 L 1051.24,399.83 L 1049.03,399.83 L 1047.96,399.82 L 1046.02,399.80 L 1044.14,399.78 L 1041.13,399.71 L 1039.73,399.67 L 1037.61,399.56 L 1036.64,399.50 L 1035.27,399.35 L 1034.67,399.27 L 1033.95,399.07 L 1033.65,398.96 M 1059.44,243.63 L 1057.84,242.88 L 1054.83,240.79 L 1053.38,239.66 L 1050.81,236.95 L 1049.60,235.54 L 1047.63,232.41 L 1045.53,227.45 L 1045.28,226.59 L 1044.88,225.11 L 1044.69,224.40 L 1044.42,223.16 L 1044.19,221.95 L 1044.13,219.89 L 1044.17,218.85 L 1044.69,216.63 L 1044.85,216.03 L 1045.30,214.69 L 1046.13,212.37 L 1046.87,210.40 L 1048.88,206.90 L 1049.98,205.23 L 1052.65,202.39 L 1054.07,201.05 L 1057.36,198.90 L 1062.94,196.52 L 1063.68,196.30 L 1064.92,195.93 L 1065.51,195.76 L 1066.51,195.51 L 1067.47,195.28 L 1069.01,195.16 L 1069.78,195.16 L 1071.42,195.48 L 1071.87,195.58 L 1072.91,195.88 L 1074.74,196.44 L 1076.55,197.02 L 1079.80,198.52 L 1081.35,199.33 L 1084.06,201.30 L 1085.35,202.34 L 1087.50,204.75 L 1090.07,208.85 L 1090.69,210.13 L 1091.90,212.64 L 1092.18,213.22 L 1092.65,214.20 L 1093.16,215.24 L 1093.46,215.85 L 1093.79,217.39 L 1093.92,218.20 L 1093.93,220.05 L 1093.90,221.00 L 1093.61,223.05 L 1093.44,224.09 L 1092.89,226.24 L 1092.28,228.40 L 1090.38,232.58 L 1089.86,233.57 L 1088.69,235.41 L 1086.77,237.80 L 1085.68,238.95 L 1082.94,241.02 L 1081.51,242.00 L 1078.35,243.62 L 1076.76,244.35 L 1073.53,245.35 L 1069.00,245.98 L 1068.34,245.98 L 1066.81,245.81 L 1066.03,245.69 L 1064.34,245.32 L 1062.65,244.90 Z" fill="rgba(0,0,0,1)"/>
</g>
</svg>